<?xml version="1.0" standalone="no"?>
<!DOCTYPE svg PUBLIC "-//W3C//DTD SVG 20010904//EN"
 "http://www.w3.org/TR/2001/REC-SVG-20010904/DTD/svg10.dtd">
<svg version="1.0" xmlns="http://www.w3.org/2000/svg"
 width="980.000000pt" height="811.000000pt" viewBox="0 0 980.000000 811.000000"
 preserveAspectRatio="xMidYMid meet">
<metadata>
Created by potrace 1.16, written by Peter Selinger 2001-2019
</metadata>
<g transform="translate(0.000000,811.000000) scale(0.100000,-0.100000)"
fill="#000000" stroke="none">
<path d="M2316 8094 c-33 -11 -65 -32 -102 -68 -85 -86 -84 -75 -84 -669 l0
-509 -40 -45 c-165 -188 -89 -506 149 -620 75 -36 212 -44 292 -18 153 50 259
180 284 346 13 90 -29 228 -93 300 l-31 36 -3 524 c-3 507 -4 525 -24 569 -30
65 -70 107 -128 137 -63 32 -151 39 -220 17z"/>
<path d="M3814 8099 c-53 -15 -127 -72 -156 -119 -15 -25 -32 -69 -38 -99 -6
-32 -10 -254 -10 -544 l0 -489 -31 -36 c-43 -49 -79 -130 -89 -203 -25 -174
70 -347 230 -423 60 -29 73 -31 175 -31 100 0 115 3 167 28 240 118 310 409
149 622 l-41 54 0 504 c0 587 1 577 -84 663 -74 74 -176 101 -272 73z"/>
<path d="M5300 8101 c-76 -24 -141 -81 -176 -156 l-24 -50 0 -519 0 -518 -31
-36 c-18 -20 -46 -66 -63 -102 -29 -60 -31 -73 -31 -170 0 -98 2 -109 32 -171
39 -80 120 -159 200 -197 52 -24 69 -27 168 -27 99 0 116 3 168 27 80 38 161
117 200 197 30 62 32 73 32 171 0 97 -2 110 -31 170 -17 36 -45 82 -63 102
l-31 36 0 518 0 519 -24 51 c-31 67 -86 119 -153 144 -54 20 -127 25 -173 11z"/>
<path d="M1295 7429 c-182 -24 -407 -98 -560 -186 -374 -215 -629 -562 -712
-971 -17 -82 -18 -233 -18 -2547 0 -2314 1 -2465 18 -2547 70 -343 262 -647
542 -858 190 -142 379 -228 625 -282 l105 -23 2590 0 c2449 0 2595 1 2680 18
209 42 401 117 562 222 319 208 523 490 621 859 l26 101 3 895 4 895 -30 -30
c-17 -16 -145 -156 -285 -310 l-256 -280 0 -437 c0 -254 -4 -469 -11 -513 -50
-362 -318 -675 -679 -794 -180 -59 0 -54 -2535 -58 -1496 -3 -2368 0 -2455 6
-74 6 -169 19 -211 30 -365 97 -638 363 -735 716 -18 68 -19 133 -19 2395 l0
2325 23 80 c105 369 430 652 822 716 l70 12 0 288 0 289 -57 -1 c-32 -1 -89
-6 -128 -10z"/>
<path d="M6280 7153 l0 -291 57 -7 c344 -43 682 -302 803 -615 61 -160 63
-173 69 -585 l6 -379 283 309 282 310 0 131 c0 149 -17 267 -60 404 -129 417
-473 767 -905 923 -116 41 -301 78 -422 84 l-113 6 0 -290z"/>
<path d="M8924 6636 c-61 -19 -71 -29 -224 -197 -106 -117 -136 -157 -127
-165 96 -92 900 -814 907 -814 18 0 276 293 298 338 46 93 15 227 -88 381
-199 297 -573 520 -766 457z"/>
<path d="M7521 5138 c-484 -534 -881 -974 -881 -978 0 -7 896 -823 909 -828
10 -3 1773 1939 1769 1948 -3 8 -890 814 -906 824 -5 3 -406 -432 -891 -966z"/>
<path d="M3875 4605 c-521 -94 -930 -506 -1019 -1024 -20 -121 -20 -311 0
-432 89 -520 502 -934 1022 -1024 110 -20 326 -19 438 0 388 68 725 319 904
675 91 180 132 358 132 565 0 207 -41 385 -132 565 -180 357 -515 607 -904
675 -107 18 -341 19 -441 0z m1088 -659 c69 -29 126 -115 127 -191 0 -22 -10
-61 -23 -87 -14 -29 -193 -239 -477 -559 -481 -542 -488 -548 -574 -549 -87 0
-101 10 -468 336 -294 261 -357 322 -375 361 -86 183 106 369 284 275 17 -9
142 -116 278 -237 136 -121 250 -220 254 -220 4 0 174 189 379 420 263 297
384 427 414 443 48 26 130 30 181 8z"/>
<path d="M1210 4511 c-40 -21 -80 -89 -80 -134 0 -46 37 -114 74 -137 33 -20
46 -20 813 -20 l779 0 44 63 c24 34 84 104 134 155 l89 92 -909 0 c-867 0
-911 -1 -944 -19z"/>
<path d="M5215 4446 c44 -46 103 -116 130 -155 l50 -70 565 -1 c547 0 566 1
598 20 97 60 97 210 0 270 -32 19 -52 20 -728 20 l-695 0 80 -84z"/>
<path d="M6268 3303 c-113 -373 -205 -679 -203 -681 2 -2 295 114 652 258 356
144 654 264 661 267 7 3 12 9 10 13 -5 11 -899 820 -906 820 -4 0 -100 -305
-214 -677z"/>
<path d="M1230 2429 c-38 -15 -78 -58 -91 -96 -26 -81 22 -181 99 -203 25 -7
338 -10 975 -8 l938 3 -88 76 c-48 42 -117 113 -153 157 l-65 81 -795 0 c-503
0 -804 -4 -820 -10z"/>
<path d="M5323 2407 c-30 -43 -165 -182 -233 -240 l-55 -47 736 0 736 0 43 23
c110 58 108 228 -3 281 -31 14 -98 16 -619 16 l-583 0 -22 -33z"/>
</g>
</svg>
